<svg xmlns="http://www.w3.org/2000/svg" xml:space="preserve" id="레이어_1" x="0px" y="0px" style="enable-background:new 0 0 694.1 732.4" version="1.1" viewBox="0 0 694.1 732.4"><style>.st29{fill:#ccc}.st32{fill:#fff}</style><g id="레이어_2_00000051377132721312777850000001700181887052161932_"><g id="Layer_1"><linearGradient id="SVGID_1_" x1="347.1515" x2="347.1515" y1="200.0852" y2="-367.469" gradientTransform="matrix(1 0 0 -1 0 247.986)" gradientUnits="userSpaceOnUse"><stop offset="0" style="stop-color:#fcca5b"/><stop offset="0.23" style="stop-color:#ad6c26"/><stop offset="0.46" style="stop-color:#fcca5b"/><stop offset="0.64" style="stop-color:#c08835"/><stop offset="1" style="stop-color:#a25508"/></linearGradient><path d="M342.3 145.6c-3-5.9-11.4-8.3-16.3-12.8 2.1-6.2 10.9-9.8 12.2-16.7 1-3.2 6.1-11.3 1.7-12.2-2.8 5.5-3.1 11.9-8.5 16.4-5 6.5-13 9.9-21.1 8.9-8.6-.2-18.3-6.4-14.6-13.6 1.2-6.8 15.8-7.6 12.9.6 1.4 7.4 15 0 16-4.7 2.3-4.1 2.3-8.2-5.1-6.1-8.7-.6-3.4-11.9 4.4-11.1 4.6-6.7-4.8-15.7-14.4-14.6-11.9 1-7.4 8.6-3.7 13.7 2.1 4.4-8 13.8-8.9 4.9-3.6-8.9-18.5-10.9-21.1-20.3-1.5-6.2-3.9-13.1-.7-19.2 6.6-6.9 18.6-12.5 29.7-8.7 16.1 4.6 25.1 17.3 30.5 29.2 2.7 3.3-.6 11.6 5 11.7 2-7-3.2-13.8-5.6-20.4-5.1-12.4-14.1-24.8-11.4-38.1 3.3-11.7 14.8-20.4 20.5-31.4 6.7-5 10.6 7.3 14.8 10.4 5.9 8.6 14.4 17.5 12.6 27.8-.5 11.7-7.5 22.2-12.4 33-2.5 6.7-4.3 13.7-5.1 20.8 5.4-3.3 2.6-10.5 5.9-15.2 5.7-12.3 16.3-25 33.3-28.6 10.3-1.6 20.5 2.7 26.7 11 2.6 9.6 1 21.7-10.5 27.6-8.5 2-9.6 10.8-16.3 13.3-8.4-3.6-2.7-11.4-1.2-16.8-1.7-8.6-19.8-4.7-21.3 2.8-3.3 4.5-1.4 9.6 6.1 8.9 3.4 4.7 1.4 12.4-7.3 9.1-1 5 3 11.9 10 13.8 7 1.9 8.3-4.3 3.6-6.7 5-7.1 16-2.1 17.2 4.3 1.5 8.5-11.5 14.5-21.2 12-11.9-1.9-20.5-10.6-21-19.9.3-4.2-5.7-7.6-4.3-1.4 1 9.8 8.5 17.9 16.3 25.2-4.8 3.5-10 6.7-15.3 9.4-3 3-5.9 13.3-10.5 5.9l-.7-1-.8-1.2h-.1z" style="fill:url(#SVGID_1_)"/><linearGradient id="SVGID_00000137829347588768599000000011666631783534356626_" x1="347.0594" x2="347.0594" y1="200.0852" y2="-367.469" gradientTransform="matrix(1 0 0 -1 0 247.986)" gradientUnits="userSpaceOnUse"><stop offset="0" style="stop-color:#fcca5b"/><stop offset="0.23" style="stop-color:#ad6c26"/><stop offset="0.46" style="stop-color:#fcca5b"/><stop offset="0.64" style="stop-color:#c08835"/><stop offset="1" style="stop-color:#a25508"/></linearGradient><path d="m347 641.3-8.2-3.3C93.9 539.6 77.8 287.6 77.2 273l-.7-19.6 19.3-3c57.6-8.7 85.4-77.5 85.7-78.1l3.9-10.1 10.3-3c74.1-21.6 120.8-29 139.7-29h10c14.8 0 74.1 6.8 152.7 28.9l10.5 3 4 10.2c.3.7 28 69.4 85.7 78.1l19.4 3-.7 19.6c-.6 14.5-16.7 266.6-261.6 364.9l-8.4 3.4z" style="fill:url(#SVGID_00000137829347588768599000000011666631783534356626_)"/><path d="M521.9 217.7c-9.5-12.2-17.4-25.6-23.5-39.8l-1.2-3.2-3.2-.9c-76.5-21.7-136-28.4-148.3-28.3h-10.6c-15.8 0-62.3 7.1-135.1 28.3l-3.3.9-1.4 3.6c-6.1 14-13.9 27.2-23.2 39.4-15.4 19.9-39.6 42.5-74.1 47.8l-5.9.9.2 5.9c.2 5.8 4.2 71 37.8 145.3s96 158.4 214.3 206.1l2.6 1 2.5-1c118.2-47.5 180.5-131.4 214.2-206s37.6-139.6 37.8-145.3l.2-5.9-5.9-.9c-34.4-5.4-58.5-28-73.9-47.9z" style="fill:#003c6b"/><linearGradient id="SVGID_00000157986412103084316500000012456380942633171850_" x1="346.9111" x2="346.9111" y1="10.1195" y2="-451.2128" gradientTransform="matrix(1 0 0 -1 0 247.986)" gradientUnits="userSpaceOnUse"><stop offset="0" style="stop-color:#000101"/><stop offset="0.17" style="stop-color:#0a0b0b"/><stop offset="0.5" style="stop-color:#191919"/><stop offset="1" style="stop-color:#000101"/></linearGradient><path d="M521.9 217.7c-9.5-12.2-17.4-25.6-23.5-39.8l-1.2-3.2-3.2-.9c-76.5-21.7-136-28.4-148.3-28.3h-10.6c-15.8 0-62.3 7.1-135.1 28.3l-3.3.9-1.4 3.6c-6.1 14-13.9 27.2-23.2 39.4-15.4 19.9-39.6 42.5-74.1 47.8l-5.9.9.2 5.9c.2 5.8 4.2 71 37.8 145.3s96 158.4 214.3 206.1l2.6 1 2.5-1c118.2-47.5 180.5-131.4 214.2-206s37.6-139.6 37.8-145.3l.2-5.9-5.9-.9c-34.4-5.4-58.5-28-73.9-47.9z" style="fill:url(#SVGID_00000157986412103084316500000012456380942633171850_)"/><linearGradient id="SVGID_00000156589977198100943240000007422380344795878064_" x1="341.4399" x2="341.4399" y1="200.0852" y2="-367.469" gradientTransform="matrix(1 0 0 -1 0 247.986)" gradientUnits="userSpaceOnUse"><stop offset="0" style="stop-color:#fcca5b"/><stop offset="0.23" style="stop-color:#ad6c26"/><stop offset="0.46" style="stop-color:#fcca5b"/><stop offset="0.64" style="stop-color:#c08835"/><stop offset="1" style="stop-color:#a25508"/></linearGradient><path d="M226.1 559.6c27.4 8.9 34.3 36.8 56.3 54.8 42.9 20.8 91.6 16.3 131.7-5.4 13.5-18.9 26.5-40.2 49.2-47.7-2.3 9.1-6.7 21.5-7.8 32.6-4.3 6.3-6.7 13.2-12.2 16.9 0 .7 0 1.6.9 2 19.6.2 29.8 14.5 48.8 18.5-12.1 9-31.6 11.7-46.4 7.8-13.8-3.5-20.6-15.4-34.6-15.2-15.8 4.4-32.6 6.9-46.9 13.6 11.3 7.8 32.3 6.9 42.7 16.9l-6.7 13.2c-.4.8-2.1 1-3.7 2.1-19.9-7.1-40.1-24.9-61.7-25.9-16 8.9-34.9 15.6-51 23.7-6.2-2.6-7.6-10.2-9.4-15.9V649l42.9-13.4c-13.7-7.7-29-11.8-44.7-11.9-23.7 13.8-54.2 20-77.4 3.8-1.6-1.9-3.8-3.3-6.3-3.9 20.3 2 38-9 57.5-13.6-6.7-11.5-17.8-27.1-20.4-46-1.1-1.1-1.8-2.5-1.8-4.1.4-.1.7-.2 1-.3z" style="fill:url(#SVGID_00000156589977198100943240000007422380344795878064_)"/><linearGradient id="SVGID_00000009552571413841280400000008315196298134371767_" x1="147.4245" x2="147.4245" y1="200.0852" y2="-367.469" gradientTransform="matrix(1 0 0 -1 0 247.986)" gradientUnits="userSpaceOnUse"><stop offset="0" style="stop-color:#fcca5b"/><stop offset="0.23" style="stop-color:#ad6c26"/><stop offset="0.46" style="stop-color:#fcca5b"/><stop offset="0.64" style="stop-color:#c08835"/><stop offset="1" style="stop-color:#a25508"/></linearGradient><path d="M172.4 55.4c-5.5 12.4-9.1 28.3-16 39.9-7.4 13.2-20 17.8-33.8 23.2-.2-14.5 7.8-32.3 16.1-43.4 10.7-9.3 19.1-18.2 33.7-19.7z" style="fill:url(#SVGID_00000009552571413841280400000008315196298134371767_)"/><linearGradient id="SVGID_00000150803287410828915580000012421802365846022041_" x1="545.9142" x2="545.9142" y1="200.0852" y2="-367.469" gradientTransform="matrix(1 0 0 -1 0 247.986)" gradientUnits="userSpaceOnUse"><stop offset="0" style="stop-color:#fcca5b"/><stop offset="0.23" style="stop-color:#ad6c26"/><stop offset="0.46" style="stop-color:#fcca5b"/><stop offset="0.64" style="stop-color:#c08835"/><stop offset="1" style="stop-color:#a25508"/></linearGradient><path d="M521.9 57.1c19.5 5 35 15.8 44.3 32.9 3.7 9.9 5.4 20.5 4.9 31.1-8.9-.2-16.7-8.5-24.9-16-3.6-5.3-6.1-11.9-9.1-17.1-4.9-11.3-8.3-21.7-16.5-30.4l1.3-.5z" style="fill:url(#SVGID_00000150803287410828915580000012421802365846022041_)"/><linearGradient id="SVGID_00000019637967067053323570000002414905579946450085_" x1="124.0927" x2="124.0927" y1="200.0852" y2="-367.4393" gradientTransform="matrix(1 0 0 -1 0 247.986)" gradientUnits="userSpaceOnUse"><stop offset="0" style="stop-color:#fcca5b"/><stop offset="0.23" style="stop-color:#ad6c26"/><stop offset="0.46" style="stop-color:#fcca5b"/><stop offset="0.64" style="stop-color:#c08835"/><stop offset="1" style="stop-color:#a25508"/></linearGradient><path d="M110.5 71.2c5.2 18.6 8.5 36.4 5.5 55.4l39.9-12.4c0 9.5-7.3 19.7-14.1 26.5-11.5 8.9-29.3 9.3-44.3 12.2-13.5-30.2 2.2-55.1 12.8-82.7l.2 1z" style="fill:url(#SVGID_00000019637967067053323570000002414905579946450085_)"/><linearGradient id="SVGID_00000009590152564979769580000015519896988354252163_" x1="568.0626" x2="568.0626" y1="200.0852" y2="-367.4393" gradientTransform="matrix(1 0 0 -1 0 247.986)" gradientUnits="userSpaceOnUse"><stop offset="0" style="stop-color:#fcca5b"/><stop offset="0.23" style="stop-color:#ad6c26"/><stop offset="0.46" style="stop-color:#fcca5b"/><stop offset="0.64" style="stop-color:#c08835"/><stop offset="1" style="stop-color:#a25508"/></linearGradient><path d="M589.5 79.8c11.6 25 13.8 50 10 76.8.6 1.8.8 3.7.8 5.5-7.1-4.1-16.9-5.3-26.5-7.3-16.9-3.7-28.5-14.5-37.5-27.7-.2-2.4-1-2.4-1.6-4l42.3 8.3c-.4-16.7 1.6-38 11.9-51.6h.6z" style="fill:url(#SVGID_00000009590152564979769580000015519896988354252163_)"/><linearGradient id="SVGID_00000173855968212516048900000006322156518003649436_" x1="99.2221" x2="99.2221" y1="200.0852" y2="-367.469" gradientTransform="matrix(1 0 0 -1 0 247.986)" gradientUnits="userSpaceOnUse"><stop offset="0" style="stop-color:#fcca5b"/><stop offset="0.23" style="stop-color:#ad6c26"/><stop offset="0.46" style="stop-color:#fcca5b"/><stop offset="0.64" style="stop-color:#c08835"/><stop offset="1" style="stop-color:#a25508"/></linearGradient><path d="M77.8 115.6c1.1 9.8 6.3 18.3 8.2 28.9 1 5.2 1.5 10.5 1.6 15.9 12.4 0 31.3-2.2 45.8-3.9-5.1 11.9-16.1 20.1-28.9 21.6-11.4 1.6-23 .7-33 6.7-9.8-15.3-6.9-33.6-.6-49.6 3.2-6.7 3.7-14.3 6.7-20.3l.2.7z" style="fill:url(#SVGID_00000173855968212516048900000006322156518003649436_)"/><linearGradient id="SVGID_00000144298721125336342720000016351070840881452471_" x1="597.8235" x2="597.8235" y1="200.0852" y2="-367.469" gradientTransform="matrix(1 0 0 -1 0 247.986)" gradientUnits="userSpaceOnUse"><stop offset="0" style="stop-color:#fcca5b"/><stop offset="0.23" style="stop-color:#ad6c26"/><stop offset="0.46" style="stop-color:#fcca5b"/><stop offset="0.64" style="stop-color:#c08835"/><stop offset="1" style="stop-color:#a25508"/></linearGradient><path d="M621.5 128.6c12.4 22.8 11.5 49 4.5 72.7-20.4-10.5-47.9-11.4-61.4-34.3 13.7-1 31.7-.6 44.7 5.7-.9-13.9.8-33.3 12.2-44.1z" style="fill:url(#SVGID_00000144298721125336342720000016351070840881452471_)"/><linearGradient id="SVGID_00000139265849790681876170000002811810641416587172_" x1="67.4212" x2="67.4212" y1="200.0852" y2="-367.469" gradientTransform="matrix(1 0 0 -1 0 247.986)" gradientUnits="userSpaceOnUse"><stop offset="0" style="stop-color:#fcca5b"/><stop offset="0.23" style="stop-color:#ad6c26"/><stop offset="0.46" style="stop-color:#fcca5b"/><stop offset="0.64" style="stop-color:#c08835"/><stop offset="1" style="stop-color:#a25508"/></linearGradient><path d="M49.3 157.3c1.8 13.2 11.6 26.2 9.3 40.5 9.3-1.5 26.9-8.9 41-9.2-2.4 11-9 20.7-18.5 26.9-11.2 7.6-26.5 9.1-34.5 20.1-8.9-7.4-12.5-24-11.4-37.8 2.6-15.5 8.7-28.3 13.4-41.1l.7.6z" style="fill:url(#SVGID_00000139265849790681876170000002811810641416587172_)"/><linearGradient id="SVGID_00000000921694524859561170000013028252376776123008_" x1="626.0381" x2="626.0381" y1="200.0852" y2="-367.4393" gradientTransform="matrix(1 0 0 -1 0 247.986)" gradientUnits="userSpaceOnUse"><stop offset="0" style="stop-color:#fcca5b"/><stop offset="0.23" style="stop-color:#ad6c26"/><stop offset="0.46" style="stop-color:#fcca5b"/><stop offset="0.64" style="stop-color:#c08835"/><stop offset="1" style="stop-color:#a25508"/></linearGradient><path d="M649.4 170.5c10.8 27.1 14.5 56.9-1.4 81.1-6.7-3.9-14.5-9.6-21.9-13.6-7.1-5.2-11.7-11.6-18-15.9-6-6.7-11-14.2-14.8-22.3l40 12.6c.8-16 9.3-28.4 15.7-42.5l.4.6z" style="fill:url(#SVGID_00000000921694524859561170000013028252376776123008_)"/><linearGradient id="SVGID_00000005980965424938785570000006715701676709938835_" x1="50.6404" x2="50.6404" y1="200.0852" y2="-367.469" gradientTransform="matrix(1 0 0 -1 0 247.986)" gradientUnits="userSpaceOnUse"><stop offset="0" style="stop-color:#fcca5b"/><stop offset="0.23" style="stop-color:#ad6c26"/><stop offset="0.46" style="stop-color:#fcca5b"/><stop offset="0.64" style="stop-color:#c08835"/><stop offset="1" style="stop-color:#a25508"/></linearGradient><path d="m22.9 224.3 17.8 30.5c9.6-12.4 25.6-20.1 42.6-26.4C78.9 248 68.1 259.6 54 274a59.27 59.27 0 0 0-16.1 23.4c-12.6-9.8-21.6-23.8-19.8-42.4 1.7-11.3 2.8-20.8 4.8-30.7z" style="fill:url(#SVGID_00000005980965424938785570000006715701676709938835_)"/><linearGradient id="SVGID_00000039823601567237724840000009987160050721112464_" x1="643.429" x2="643.429" y1="200.0852" y2="-367.4986" gradientTransform="matrix(1 0 0 -1 0 247.986)" gradientUnits="userSpaceOnUse"><stop offset="0" style="stop-color:#fcca5b"/><stop offset="0.23" style="stop-color:#ad6c26"/><stop offset="0.46" style="stop-color:#fcca5b"/><stop offset="0.64" style="stop-color:#c08835"/><stop offset="1" style="stop-color:#a25508"/></linearGradient><path d="m672.3 230.9.4.2c9.2 27.3-3.2 55.5-17 75.3-13.5-22.8-42.7-35.6-44.6-64.6 5.3.4 14.1 5.5 20.6 8.7 7.1 4.3 12.4 8.9 19.3 13.6l20-32.9 1.3-.3z" style="fill:url(#SVGID_00000039823601567237724840000009987160050721112464_)"/><linearGradient id="SVGID_00000059999747504940382700000017675392357062800544_" x1="38.9271" x2="38.9271" y1="200.0852" y2="-367.469" gradientTransform="matrix(1 0 0 -1 0 247.986)" gradientUnits="userSpaceOnUse"><stop offset="0" style="stop-color:#fcca5b"/><stop offset="0.23" style="stop-color:#ad6c26"/><stop offset="0.46" style="stop-color:#fcca5b"/><stop offset="0.64" style="stop-color:#c08835"/><stop offset="1" style="stop-color:#a25508"/></linearGradient><path d="M68 276.2c3.5 32-11.5 59.8-27.6 81.5-19-17.8-32.6-39.3-31-67.9 1.3-2.2.6-3 1.3-4.8 7.7 12.2 20.8 19.1 28 32.9C44 303.7 57 290.5 67 277.7c.2-1.5.8-1.7.8-1.7l.2.2z" style="fill:url(#SVGID_00000059999747504940382700000017675392357062800544_)"/><linearGradient id="SVGID_00000029018579045081475400000004022367167771174591_" x1="653.7126" x2="653.7126" y1="200.0852" y2="-367.469" gradientTransform="matrix(1 0 0 -1 0 247.986)" gradientUnits="userSpaceOnUse"><stop offset="0" style="stop-color:#fcca5b"/><stop offset="0.23" style="stop-color:#ad6c26"/><stop offset="0.46" style="stop-color:#fcca5b"/><stop offset="0.64" style="stop-color:#c08835"/><stop offset="1" style="stop-color:#a25508"/></linearGradient><path d="M624.3 287c5.7 11.6 23.2 20.1 28.4 32.9l32.6-24.6c-.2 27.8-16 48.6-33.7 67.3-5.3-17.5-16.5-27.7-23.4-43.8-5.4-9.8-7.4-21.2-5.5-32.3l1.6.5z" style="fill:url(#SVGID_00000029018579045081475400000004022367167771174591_)"/><linearGradient id="SVGID_00000163761396043652964530000005055944508772047542_" x1="40.7812" x2="40.7812" y1="200.0852" y2="-367.469" gradientTransform="matrix(1 0 0 -1 0 247.986)" gradientUnits="userSpaceOnUse"><stop offset="0" style="stop-color:#fcca5b"/><stop offset="0.23" style="stop-color:#ad6c26"/><stop offset="0.46" style="stop-color:#fcca5b"/><stop offset="0.64" style="stop-color:#c08835"/><stop offset="1" style="stop-color:#a25508"/></linearGradient><path d="M71.2 330.2c7.5 28.6-8.9 52.4-21.4 73.8-10-6.9-14.8-14.1-23.7-21.3-11.9-11.5-17-29.7-17.6-45.2L41.1 372c8.9-13 22.4-25.4 29.3-41.9l.8.1z" style="fill:url(#SVGID_00000163761396043652964530000005055944508772047542_)"/><linearGradient id="SVGID_00000021826527369549724430000004282660971743680159_" x1="650.4983" x2="650.4983" y1="200.0852" y2="-367.469" gradientTransform="matrix(1 0 0 -1 0 247.986)" gradientUnits="userSpaceOnUse"><stop offset="0" style="stop-color:#fcca5b"/><stop offset="0.23" style="stop-color:#ad6c26"/><stop offset="0.46" style="stop-color:#fcca5b"/><stop offset="0.64" style="stop-color:#c08835"/><stop offset="1" style="stop-color:#a25508"/></linearGradient><path d="m622.9 335.6 25.4 39.7c8.9-8.7 17.1-19.1 30.1-24.6 1.5-1.5 3.1-2.9 4.8-4.1 1.2 14.4-3.8 28.6-13.6 39.2-10.9 9.1-20.5 20.2-31.3 28.5-1.7-27.3-31.5-47.4-16.7-78.7h1.3z" style="fill:url(#SVGID_00000021826527369549724430000004282660971743680159_)"/><linearGradient id="SVGID_00000103245185958648228960000004320411904196468643_" x1="50.6371" x2="50.6371" y1="200.1148" y2="-367.469" gradientTransform="matrix(1 0 0 -1 0 247.986)" gradientUnits="userSpaceOnUse"><stop offset="0" style="stop-color:#fcca5b"/><stop offset="0.23" style="stop-color:#ad6c26"/><stop offset="0.46" style="stop-color:#fcca5b"/><stop offset="0.64" style="stop-color:#c08835"/><stop offset="1" style="stop-color:#a25508"/></linearGradient><path d="M77.6 377.5c9.1 24 3 49.2-6.5 72.1-12.2-1.4-25.4-6.2-33.6-14.3-10.5-11.9-14.8-28.6-18.3-45.5 10.8 13.5 23.7 18.7 36.2 27.8 4.7-9.2 10.4-17.3 15.7-26 3-4.5 3.5-9.5 5.7-14.5l.8.4z" style="fill:url(#SVGID_00000103245185958648228960000004320411904196468643_)"/><linearGradient id="SVGID_00000176747608989995321580000016642991182557954218_" x1="636.5864" x2="636.5864" y1="200.0555" y2="-367.469" gradientTransform="matrix(1 0 0 -1 0 247.986)" gradientUnits="userSpaceOnUse"><stop offset="0" style="stop-color:#fcca5b"/><stop offset="0.23" style="stop-color:#ad6c26"/><stop offset="0.46" style="stop-color:#fcca5b"/><stop offset="0.64" style="stop-color:#c08835"/><stop offset="1" style="stop-color:#a25508"/></linearGradient><path d="m613.8 382.8.4.6c.6 16.6 10.2 30.9 16.3 45.7 10.8-11.9 24.4-16.3 38.4-22.2-1.6 12.8-7.1 26.7-17 35.6-11.2 8.5-24.9 11.3-35.4 21.1-10.6-22.7-17.8-50.8-6.9-75.6 1.3-1.3 2.3-2.9 3-4.6l1.2-.6z" style="fill:url(#SVGID_00000176747608989995321580000016642991182557954218_)"/><linearGradient id="SVGID_00000085953287451180932190000008481603225251387532_" x1="66.6612" x2="66.6612" y1="200.0852" y2="-367.469" gradientTransform="matrix(1 0 0 -1 0 247.986)" gradientUnits="userSpaceOnUse"><stop offset="0" style="stop-color:#fcca5b"/><stop offset="0.23" style="stop-color:#ad6c26"/><stop offset="0.46" style="stop-color:#fcca5b"/><stop offset="0.64" style="stop-color:#c08835"/><stop offset="1" style="stop-color:#a25508"/></linearGradient><path d="M91.2 419.8c16.9 21.2 8.5 49.7 2.6 74.7-.1.7-.2 1.4-.2 2.1-22.7-9.1-46.9-16.5-58.5-39.2-1.3-1.1-2.3-2.5-3-4.1 12.2 1.2 31.7 3.6 44.7 10.4l13.8-43.9h.6z" style="fill:url(#SVGID_00000085953287451180932190000008481603225251387532_)"/><linearGradient id="SVGID_00000163038376831632520480000007699306514869098886_" x1="620.3961" x2="620.3961" y1="200.0852" y2="-367.469" gradientTransform="matrix(1 0 0 -1 0 247.986)" gradientUnits="userSpaceOnUse"><stop offset="0" style="stop-color:#fcca5b"/><stop offset="0.23" style="stop-color:#ad6c26"/><stop offset="0.46" style="stop-color:#fcca5b"/><stop offset="0.64" style="stop-color:#c08835"/><stop offset="1" style="stop-color:#a25508"/></linearGradient><path d="m594.2 426.7 16.5 46.7c11.9-7.1 26.9-10.4 42.5-11 1.2-.7 2.6-.9 3.9-.6-8.9 19.7-28.5 28.5-48.8 37-7.9 1.8-14.8 3-20.1 7.7 11.2-24.2-16.3-54.6 2.3-76.8 1-1.4 2.2-2.6 3.6-3.7l.1.7z" style="fill:url(#SVGID_00000163038376831632520480000007699306514869098886_)"/><linearGradient id="SVGID_00000145031213252087245140000015139141785755276963_" x1="103.2712" x2="103.2712" y1="200.0852" y2="-367.469" gradientTransform="matrix(1 0 0 -1 0 247.986)" gradientUnits="userSpaceOnUse"><stop offset="0" style="stop-color:#fcca5b"/><stop offset="0.23" style="stop-color:#ad6c26"/><stop offset="0.46" style="stop-color:#fcca5b"/><stop offset="0.64" style="stop-color:#c08835"/><stop offset="1" style="stop-color:#a25508"/></linearGradient><path d="M113.2 462.2c20.8 16.5 17.9 51.1 26.9 76.3-13.9 1.4-34 3.6-46.2-5.5-11.6-8.2-16.9-21.8-27.4-28.5l40.3 7.1 5.3-49.4h1.1z" style="fill:url(#SVGID_00000145031213252087245140000015139141785755276963_)"/><linearGradient id="SVGID_00000072971117646228792850000012727227584964684937_" x1="582.3072" x2="582.3072" y1="200.0852" y2="-367.469" gradientTransform="matrix(1 0 0 -1 0 247.986)" gradientUnits="userSpaceOnUse"><stop offset="0" style="stop-color:#fcca5b"/><stop offset="0.23" style="stop-color:#ad6c26"/><stop offset="0.46" style="stop-color:#fcca5b"/><stop offset="0.64" style="stop-color:#c08835"/><stop offset="1" style="stop-color:#a25508"/></linearGradient><path d="M573.9 473.4c-1 15.7 6.5 31.1 1.4 46.9 13.4-4.6 31.1-6.5 46.2-8.3-10.6 21-33.4 29.7-58.4 35-6.7.5-13.4 1.5-19.9 3 12.4-24.1 6.9-59.5 30.6-77.1l.1.5z" style="fill:url(#SVGID_00000072971117646228792850000012727227584964684937_)"/><linearGradient id="SVGID_00000024714967633188348670000007854447207074155945_" x1="144.4759" x2="144.4759" y1="200.1148" y2="-367.469" gradientTransform="matrix(1 0 0 -1 0 247.986)" gradientUnits="userSpaceOnUse"><stop offset="0" style="stop-color:#fcca5b"/><stop offset="0.23" style="stop-color:#ad6c26"/><stop offset="0.46" style="stop-color:#fcca5b"/><stop offset="0.64" style="stop-color:#c08835"/><stop offset="1" style="stop-color:#a25508"/></linearGradient><path d="M143.9 503.3c26.9 12.4 31.7 44.5 42.5 71.2-27.7 7.9-64.1-1.7-83.9-20.2 14.8 0 32-8.7 48.1-6.7.3-13.2-1.4-31.6-6.7-44.3z" style="fill:url(#SVGID_00000024714967633188348670000007854447207074155945_)"/><linearGradient id="SVGID_00000086656294632145748890000004775673777113643650_" x1="542.8147" x2="542.8147" y1="200.0852" y2="-367.469" gradientTransform="matrix(1 0 0 -1 0 247.986)" gradientUnits="userSpaceOnUse"><stop offset="0" style="stop-color:#fcca5b"/><stop offset="0.23" style="stop-color:#ad6c26"/><stop offset="0.46" style="stop-color:#fcca5b"/><stop offset="0.64" style="stop-color:#c08835"/><stop offset="1" style="stop-color:#a25508"/></linearGradient><path d="M544.4 507.8c-8.9 13.2-1.9 34.6-12.1 48.8-.2 1-.2 2 0 3 17.3-5 34.2 4.1 51.3 2.3.4 5.7-8.4 10.2-12.6 13.2-22 12.6-47.2 3-69.1 4.6 11.3-22.5 10.7-55.9 34.5-69.2 3.5-.2 5-2.5 8-2.7z" style="fill:url(#SVGID_00000086656294632145748890000004775673777113643650_)"/><linearGradient id="SVGID_00000023247959939642835560000001541279558195582107_" x1="499.8385" x2="499.8385" y1="200.0852" y2="-367.469" gradientTransform="matrix(1 0 0 -1 0 247.986)" gradientUnits="userSpaceOnUse"><stop offset="0" style="stop-color:#fcca5b"/><stop offset="0.23" style="stop-color:#ad6c26"/><stop offset="0.46" style="stop-color:#fcca5b"/><stop offset="0.64" style="stop-color:#c08835"/><stop offset="1" style="stop-color:#a25508"/></linearGradient><path d="M506.5 536.7c-13 13.6-4.4 37.5-16 51.7-.2.7-.4 1.4-.4 2.1 12.2 1.4 24.2 4.2 35.8 8.3 5.7 1 11.5 1.4 17.3 1.5-5 9.1-15.4 14.1-26.7 16.1-20.1 2.6-40.2-9.1-59.9-10 13.2-25.8 20.8-57.3 49.4-70l.5.3z" style="fill:url(#SVGID_00000023247959939642835560000001541279558195582107_)"/><linearGradient id="SVGID_00000085221612377286152150000003569127244917819798_" x1="189.8322" x2="189.8322" y1="200.0555" y2="-367.469" gradientTransform="matrix(1 0 0 -1 0 247.986)" gradientUnits="userSpaceOnUse"><stop offset="0" style="stop-color:#fcca5b"/><stop offset="0.23" style="stop-color:#ad6c26"/><stop offset="0.46" style="stop-color:#fcca5b"/><stop offset="0.64" style="stop-color:#c08835"/><stop offset="1" style="stop-color:#a25508"/></linearGradient><path d="M186.6 537.9c27.2 9.8 33.5 41 46.1 65.2-22.6 6.3-47.7 19.1-68.6 3-6.1-3.4-11.9-7.5-17.1-12.2 14.6 4.8 34.1-2.4 49.9-7.6-4.8-16-2-33.6-10.9-48.6l.6.2z" style="fill:url(#SVGID_00000085221612377286152150000003569127244917819798_)"/><path d="M397.9 335.8c-10.8-4.5-23.4-25.9 4.4-51.6 27.8-25.7 97.3-40.3 125.8-17.3 36.7 29.7 14.4 98.7-65.9 143.8-37.9 21.3-103.8 36.6-116 .6-5.3-15.4-3-33.3-7.8-47-5.5-15-19.9-24.9-35.9-24.6 0 0 47.4-15.1 59.6 14 14.2 34 34.7 52 87.2 18.9s69.8-102.4 11.9-91.4c-15.2 3-34.5 18.4-24.1 29.7 10.3 11.3 44.2 3.2 44.2 3.2s-47.5 36.8-83.4 21.7z" class="st29"/><path d="M321 352.9c10.8 4.6 23.4 25.9-4.4 51.6-27.8 25.7-97.2 40.2-125.8 17.2-36.7-29.7-14.4-98.7 65.9-143.8 37.9-21.3 103.8-36.6 116-.6 5.3 15.4 3 33.3 7.8 47 5.5 15.1 20 24.9 36 24.6 0 0-47.4 15.1-59.6-14.1-14.3-34-34.7-52-87.2-18.9s-69.8 102.2-11.8 91.4c15.2-3 34.4-18.4 24.1-29.7-10.3-11.3-44.2-3.2-44.2-3.2s47.3-36.7 83.2-21.5z" class="st29"/><linearGradient id="SVGID_00000097467813865638585140000002570041977549911989_" x1="414.5045" x2="499.227" y1="-55.2704" y2="-194.4679" gradientTransform="matrix(1 0 0 -1 0 247.986)" gradientUnits="userSpaceOnUse"><stop offset="0" style="stop-color:#0881c5"/><stop offset="2.000000e-02" style="stop-color:#097ec2"/><stop offset="0.21" style="stop-color:#135d9f"/><stop offset="0.4" style="stop-color:#1c4284"/><stop offset="0.6" style="stop-color:#213070"/><stop offset="0.79" style="stop-color:#252565"/><stop offset="1" style="stop-color:#262161"/></linearGradient><path d="M392.9 330.8c-10.9-4.6-23.4-25.9 4.4-51.6 27.8-25.7 97.2-40.3 125.8-17.3 36.7 29.7 14.4 98.7-65.9 143.8-37.9 21.3-103.8 36.6-116 .7-5.3-15.4-3-33.3-7.8-47-5.5-15.1-20-25-36-24.6 0 0 47.4-15.1 59.5 14 14.3 34 34.7 52 87.2 18.9S514 265.4 456 276.3c-15.2 3-34.5 18.4-24.1 29.7 10.3 11.2 44.2 3.2 44.2 3.2s-47.3 36.8-83.2 21.6z" style="fill:url(#SVGID_00000097467813865638585140000002570041977549911989_)"/><linearGradient id="SVGID_00000032647105415735991330000002430949614714350228_" x1="266.7611" x2="324.8539" y1="-54.6489" y2="-213.2106" gradientTransform="matrix(1 0 0 -1 0 247.986)" gradientUnits="userSpaceOnUse"><stop offset="0" style="stop-color:#dc1e26"/><stop offset="2.000000e-02" style="stop-color:#d91d25"/><stop offset="0.21" style="stop-color:#b61318"/><stop offset="0.4" style="stop-color:#9b0a0d"/><stop offset="0.6" style="stop-color:#870506"/><stop offset="0.79" style="stop-color:#7c0101"/><stop offset="1" style="stop-color:#780000"/></linearGradient><path d="M316 347.8c10.9 4.6 23.4 25.9-4.4 51.6-27.8 25.7-97.2 40.3-125.8 17.4-36.8-29.7-14.4-98.7 65.9-143.8 37.9-21.3 103.8-36.6 116-.7 5.3 15.4 3 33.3 7.8 47 5.4 15.1 19.9 25.1 36 24.7 0 0-47.4 15.1-59.6-14-14.3-34-34.7-52-87.2-18.9s-69.8 102.4-11.9 91.5c15.2-3 34.5-18.4 24.1-29.7s-44.2-3.2-44.2-3.2 47.4-37.1 83.3-21.9z" style="fill:url(#SVGID_00000032647105415735991330000002430949614714350228_)"/><path d="m344.9 405.8-2.1-70.8 2.1-70.7L347 335z" class="st32"/><path d="m415.6 335-70.7 2.1-70.7-2.1 70.7-2.1z" class="st32"/><path d="m394.9 385-51.5-48.5-48.5-51.5 51.5 48.6z" class="st32"/><path d="m394.9 285-48.5 51.5-51.5 48.5 48.5-51.4z" class="st32"/><path d="m363.2 380.9-19.7-45.3-16.9-46.5 19.6 45.4z" class="st32"/><path d="m390.8 316.7-45.4 19.7-46.4 17 45.3-19.7z" class="st32"/><path d="m390.3 354.5-46-18.1-44.9-20.8 46 18.1z" class="st32"/><path d="m364.4 289.6-18.2 46-20.8 44.9 18.1-46z" class="st32"/><linearGradient id="SVGID_00000054975722361699637130000008116914153318912434_" x1="292.3027" x2="-39.0251" y1="-402.4166" y2="-402.4166" gradientTransform="matrix(1 0 0 -1 0 247.986)" gradientUnits="userSpaceOnUse"><stop offset="0" style="stop-color:#fcca5b"/><stop offset="0.23" style="stop-color:#ad6c26"/><stop offset="0.46" style="stop-color:#fcca5b"/><stop offset="0.64" style="stop-color:#c08835"/><stop offset="1" style="stop-color:#a25508"/></linearGradient><path d="M199.7 654.4s-114 24.3-156.8 78c0 0-1.7-45 8.5-62.3 0 0-15.5-9.9-51.4-14.4 0 0 56.1-64.3 170.7-87.4l29 86.1z" style="fill:url(#SVGID_00000054975722361699637130000008116914153318912434_)"/><linearGradient id="SVGID_00000152241375925617697850000010471119593795089811_" x1="136.232" x2="199.7219" y1="-383.7492" y2="-383.7492" gradientTransform="matrix(1 0 0 -1 0 247.986)" gradientUnits="userSpaceOnUse"><stop offset="0" style="stop-color:#221e1f"/><stop offset="0.39" style="stop-color:#58595b"/><stop offset="0.62" style="stop-color:#221e1f"/><stop offset="1" style="stop-color:#221e1f"/></linearGradient><path d="m136.2 631.9 63.5 22.5-14.8-45.4c0 .1-22.1 9.2-48.7 22.9z" style="fill:url(#SVGID_00000152241375925617697850000010471119593795089811_)"/><linearGradient id="SVGID_00000080887566515822963780000013787647553529776263_" x1="779.6419" x2="464.4164" y1="-402.298" y2="-402.298" gradientTransform="matrix(1 0 0 -1 0 247.986)" gradientUnits="userSpaceOnUse"><stop offset="0" style="stop-color:#fcca5b"/><stop offset="0.23" style="stop-color:#ad6c26"/><stop offset="0.46" style="stop-color:#fcca5b"/><stop offset="0.64" style="stop-color:#c08835"/><stop offset="1" style="stop-color:#a25508"/></linearGradient><path d="M494.4 654.4s114 24.3 156.8 77.9c0 0 1.6-45-8.5-62.3 0 0 15.5-9.9 51.4-14.4 0 0-56.1-64.3-170.7-87.4l-29 86.2z" style="fill:url(#SVGID_00000080887566515822963780000013787647553529776263_)"/><linearGradient id="SVGID_00000005226155264565003010000013989806495990585267_" x1="88.0437" x2="557.7089" y1="-301.3695" y2="-301.3695" gradientTransform="matrix(1 0 0 -1 0 247.986)" gradientUnits="userSpaceOnUse"><stop offset="0" style="stop-color:#fcca5b"/><stop offset="0.23" style="stop-color:#ad6c26"/><stop offset="0.46" style="stop-color:#fcca5b"/><stop offset="0.64" style="stop-color:#c08835"/><stop offset="1" style="stop-color:#a25508"/></linearGradient><path d="m121.9 613.8 13.7 20.2h-.2l-13.5-20.2zm-49.2-72.7c2.7-1.8 30.7-20.5 78.4-39.2 62.6-24.5 129.2-37.1 196.5-37.2 78.3 0 169.2 17.8 263.5 68.5L558 632c-77.7-41.5-148.6-55-210.4-55.1-52 .1-103.5 9.6-152.1 28.1-20.8 7.6-40.9 17.3-59.8 28.9l-63-92.8z" style="fill:url(#SVGID_00000005226155264565003010000013989806495990585267_)"/><linearGradient id="SVGID_00000009572017781212189640000015168354174667325604_" x1="494.3969" x2="557.8869" y1="-383.7492" y2="-383.7492" gradientTransform="matrix(1 0 0 -1 0 247.986)" gradientUnits="userSpaceOnUse"><stop offset="0" style="stop-color:#221e1f"/><stop offset="0.39" style="stop-color:#58595b"/><stop offset="0.62" style="stop-color:#221e1f"/><stop offset="1" style="stop-color:#221e1f"/></linearGradient><path d="m557.9 631.9-63.5 22.5 14.8-45.4c0 .1 22.1 9.2 48.7 22.9z" style="fill:url(#SVGID_00000009572017781212189640000015168354174667325604_)"/><path d="M239.7 566.8c-21 5.9-35.6.4-44.5-19.6v-.3c-9.9-19.3 3-37.5 24.1-42.4 12.3-3.5 18.5-5 31-7.7 1.3 5.4 2 8.1 3.3 13.5-13.4 3-20.1 4.5-33.3 8.4-4.5.9-8.4 3.9-10.4 8-1.5 3.7-1 8.7 1.4 14.8l.3.7c4.4 11.1 11.3 14.8 20.8 12.1 5.9-1.7 8.7-2.6 14.5-4.1 1.6-.3 2.9-1.3 3.6-2.7.8-1.3 1-2.9.6-4.4-.5-1.6-1.5-2.9-3-3.6-1.5-.9-3.2-1.1-4.8-.7-5.2 1.3-7.9 2-13.1 3.6l-4.4-13.2c5.7-1.6 8.5-2.4 14.2-3.8 3-.8 6.1-1 9.2-.6 2.8.4 5.6 1.3 8.1 2.7 2.4 1.3 4.4 3 6.1 5.1 1.6 1.9 2.7 4.2 3.3 6.6l.2 1c.6 2.4.6 4.9 0 7.4s-1.6 4.9-3 7c-1.5 2.2-3.3 4.1-5.4 5.7-2.1 1.6-4.6 2.8-7.2 3.4-4.8 1.2-7 1.8-11.6 3.1zM311.4 553.5c-21.7 1.9-34.5-6.4-38.9-27.7v-.3c-5.4-20.6 10.6-36.1 32.5-36.9 12.7-1.1 19-1.4 31.8-1.6 0 5.5 0 8.3.3 13.8-13.7.2-20.5.6-34.1 1.9-4.7.1-9 2.2-11.9 5.9-2.3 3.3-3 8.2-1.9 14.8v.8c1.8 11.7 7.7 16.8 17.6 15.8 5.9-.6 8.9-.8 14.8-1.2 3.3-.2 5.8-3 5.7-6.2-.1-1.6-.8-3-2-4.1-1.2-1.1-2.9-1.7-4.6-1.5-5.4.3-8.1.5-13.5 1-.6-5.5-.9-8.3-1.5-13.8 5.9-.5 8.9-.7 14.6-1.1 6-.4 11.8 1.5 16.4 5.4 2 1.7 3.7 3.8 4.9 6.1 1.1 2.2 1.7 4.6 1.7 7.1v1c0 2.5-.6 5-1.7 7.2-1.1 2.4-2.7 4.5-4.6 6.3-1.9 1.9-4.1 3.4-6.4 4.5-2.4 1.2-5.1 1.9-7.8 2-4.4.3-6.7.4-11.4.8zM395.9 555.5l4-25.6c-12.1-1.6-18.2-2.2-30.5-3-.7 10.3-1.1 15.5-1.8 25.8-5.9-.4-9.1-.5-15.2-.6l1.5-65.2c7.3.1 10.9.3 18.2.7l-1.8 25.4c12.7.8 19 1.4 31.7 3 1.6-10.1 2.4-15.1 3.9-25.2 7.2 1 10.9 1.5 18.1 2.8-4.4 21.3-8.7 42.6-13.1 64-5.9-.8-8.9-1.2-15-2.1zM426.3 546.7c13.3 2.7 26.4 6.1 39.3 10.4 1.5.5 3.2.4 4.7-.3s2.6-1.9 3.2-3.4c.7-1.4.7-3.1 0-4.5-.7-1.5-2-2.6-3.6-3-7.9-2.6-11.9-3.7-20-5.9-3.9-.9-7.6-2.4-10.9-4.6-2.5-1.6-4.8-3.7-6.5-6.1-1.5-2-2.6-4.4-3-7-.4-2.4-.2-4.9.3-7.3.6-2.5 1.6-4.9 3.2-6.9 1.6-2.2 3.7-4 6.2-5.2 2.9-1.4 6.1-2.1 9.4-2.3 4.3-.2 8.6.4 12.8 1.5 13.9 3.5 27.6 7.9 41 13-2.2 5.2-3.3 7.7-5.5 12.9-13.6-5.2-27.4-9.5-41.5-13-1.8-.5-3.6-.3-5.3.4-1.5.6-2.7 1.9-3.1 3.5-.4 1.5-.1 3.1.9 4.4 1 1.5 2.6 2.6 4.3 3 8.2 2.1 12.3 3.3 20.5 5.9 6.4 1.6 12.1 5.4 16 10.8 3 4.9 3.1 11.1.4 16.1-2.1 5.4-6.4 9.6-11.9 11.5-6 1.6-12.4 1.3-18.3-.9-11.7-3.8-23.6-6.9-35.6-9.3 1-5.6 1.7-8.3 3-13.7z"/></g></g></svg>